<svg id="visual" viewBox="0 0 900 450" width="900" height="450" xmlns="http://www.w3.org/2000/svg" xmlns:xlink="http://www.w3.org/1999/xlink" version="1.1"><path d="M0 64L37.5 71.3C75 78.7 150 93.3 225 95.8C300 98.3 375 88.7 450 82.7C525 76.7 600 74.3 675 76.8C750 79.3 825 86.7 862.5 90.3L900 94L900 0L862.5 0C825 0 750 0 675 0C600 0 525 0 450 0C375 0 300 0 225 0C150 0 75 0 37.5 0L0 0Z" fill="#eae4da"></path><path d="M0 73L37.5 69.3C75 65.7 150 58.3 225 54C300 49.7 375 48.3 450 46.3C525 44.3 600 41.7 675 41.7C750 41.7 825 44.3 862.5 45.7L900 47L900 0L862.5 0C825 0 750 0 675 0C600 0 525 0 450 0C375 0 300 0 225 0C150 0 75 0 37.5 0L0 0Z" fill="#f1d185"></path><path d="M0 39L37.5 37C75 35 150 31 225 28.7C300 26.3 375 25.7 450 27.2C525 28.7 600 32.3 675 32.5C750 32.7 825 29.3 862.5 27.7L900 26L900 0L862.5 0C825 0 750 0 675 0C600 0 525 0 450 0C375 0 300 0 225 0C150 0 75 0 37.5 0L0 0Z" fill="#eac119"></path></svg>