<svg id="visual" viewBox="0 0 900 450" width="900" height="450" xmlns="http://www.w3.org/2000/svg" xmlns:xlink="http://www.w3.org/1999/xlink" version="1.1"><path d="M0 110L37.5 106.8C75 103.7 150 97.3 225 99.7C300 102 375 113 450 111.7C525 110.3 600 96.7 675 91C750 85.3 825 87.7 862.5 88.8L900 90L900 0L862.5 0C825 0 750 0 675 0C600 0 525 0 450 0C375 0 300 0 225 0C150 0 75 0 37.5 0L0 0Z" fill="#eac119"></path><path d="M0 98L37.5 96.2C75 94.3 150 90.7 225 86.3C300 82 375 77 450 73.3C525 69.7 600 67.3 675 69.5C750 71.7 825 78.3 862.5 81.7L900 85L900 0L862.5 0C825 0 750 0 675 0C600 0 525 0 450 0C375 0 300 0 225 0C150 0 75 0 37.5 0L0 0Z" fill="#f1d185"></path><path d="M0 61L37.5 58.7C75 56.3 150 51.7 225 47.2C300 42.7 375 38.3 450 39.3C525 40.3 600 46.7 675 51.2C750 55.7 825 58.3 862.5 59.7L900 61L900 0L862.5 0C825 0 750 0 675 0C600 0 525 0 450 0C375 0 300 0 225 0C150 0 75 0 37.5 0L0 0Z" fill="#eae4da"></path></svg>