<svg id="visual" viewBox="0 0 900 450" width="900" height="450" xmlns="http://www.w3.org/2000/svg" xmlns:xlink="http://www.w3.org/1999/xlink" version="1.1"><path d="M0 314L37.5 312.2C75 310.3 150 306.7 225 310.5C300 314.3 375 325.7 450 332.2C525 338.7 600 340.3 675 335.2C750 330 825 318 862.5 312L900 306L900 451L862.5 451C825 451 750 451 675 451C600 451 525 451 450 451C375 451 300 451 225 451C150 451 75 451 37.5 451L0 451Z" fill="#eac119"></path><path d="M0 356L37.5 353.2C75 350.3 150 344.7 225 353.8C300 363 375 387 450 392.3C525 397.7 600 384.3 675 383.3C750 382.3 825 393.7 862.5 399.3L900 405L900 451L862.5 451C825 451 750 451 675 451C600 451 525 451 450 451C375 451 300 451 225 451C150 451 75 451 37.5 451L0 451Z" fill="#eae4da"></path></svg>