<svg id="visual" viewBox="0 0 900 450" width="900" height="450" xmlns="http://www.w3.org/2000/svg" xmlns:xlink="http://www.w3.org/1999/xlink" version="1.1"><path d="M0 87L37.5 94.7C75 102.3 150 117.7 225 116.3C300 115 375 97 450 98.5C525 100 600 121 675 128.7C750 136.3 825 130.7 862.5 127.8L900 125L900 0L862.5 0C825 0 750 0 675 0C600 0 525 0 450 0C375 0 300 0 225 0C150 0 75 0 37.5 0L0 0Z" fill="#eac119"></path><path d="M0 60L37.5 63.2C75 66.3 150 72.7 225 74.3C300 76 375 73 450 73C525 73 600 76 675 81.7C750 87.3 825 95.7 862.5 99.8L900 104L900 0L862.5 0C825 0 750 0 675 0C600 0 525 0 450 0C375 0 300 0 225 0C150 0 75 0 37.5 0L0 0Z" fill="#f1d185"></path><path d="M0 53L37.5 54.3C75 55.7 150 58.3 225 56.7C300 55 375 49 450 49C525 49 600 55 675 57.2C750 59.3 825 57.7 862.5 56.8L900 56L900 0L862.5 0C825 0 750 0 675 0C600 0 525 0 450 0C375 0 300 0 225 0C150 0 75 0 37.5 0L0 0Z" fill="#eae4da"></path></svg>