<svg id="visual" viewBox="0 0 900 600" width="900" height="600" xmlns="http://www.w3.org/2000/svg" xmlns:xlink="http://www.w3.org/1999/xlink" version="1.1"><rect x="0" y="0" width="900" height="600" fill="#1D1D1B"></rect><path d="M0 333L30 346.5C60 360 120 387 180 390C240 393 300 372 360 368.7C420 365.3 480 379.7 540 377.8C600 376 660 358 720 357.7C780 357.3 840 374.7 870 383.3L900 392L900 601L870 601C840 601 780 601 720 601C660 601 600 601 540 601C480 601 420 601 360 601C300 601 240 601 180 601C120 601 60 601 30 601L0 601Z" fill="#eac119"></path><path d="M0 377L30 382.5C60 388 120 399 180 413.2C240 427.3 300 444.7 360 442.5C420 440.3 480 418.7 540 404.8C600 391 660 385 720 385.2C780 385.3 840 391.7 870 394.8L900 398L900 601L870 601C840 601 780 601 720 601C660 601 600 601 540 601C480 601 420 601 360 601C300 601 240 601 180 601C120 601 60 601 30 601L0 601Z" fill="#f0cb68"></path><path d="M0 447L30 449.2C60 451.3 120 455.7 180 465C240 474.3 300 488.7 360 485.2C420 481.7 480 460.3 540 462.2C600 464 660 489 720 494.2C780 499.3 840 484.7 870 477.3L900 470L900 601L870 601C840 601 780 601 720 601C660 601 600 601 540 601C480 601 420 601 360 601C300 601 240 601 180 601C120 601 60 601 30 601L0 601Z" fill="#f1d7a2"></path><path d="M0 536L30 534.7C60 533.3 120 530.7 180 526.7C240 522.7 300 517.3 360 515.8C420 514.3 480 516.7 540 517.7C600 518.7 660 518.3 720 517C780 515.7 840 513.3 870 512.2L900 511L900 601L870 601C840 601 780 601 720 601C660 601 600 601 540 601C480 601 420 601 360 601C300 601 240 601 180 601C120 601 60 601 30 601L0 601Z" fill="#eae4da"></path></svg>